<svg xmlns="http://www.w3.org/2000/svg" width="183.484" height="220.93" viewBox="0 0 183.484 220.93"><path d="M132.858,231.36a91.722,91.722,0,0,0,18.2-54.97c.3-50.926-39.318-92.191-95.262-92.491C34.45,83.749,15.428,89.666,0,99.776V252.03c15.128,9.961,33.776,15.877,54.746,15.952,19.547.15,37.446-4.718,52.05-13.48l13.63,13.256,24.939-24.34-12.507-12.132ZM103.949,202.6h0L80.883,179.61,55.869,203.95,79.46,227.466A51.572,51.572,0,0,1,55.2,233.083C23.067,232.933,0,206.646.225,175.566c.15-30.78,23.516-56.843,55.644-56.693,31.529.15,54.6,26.437,54.371,57.292a58.641,58.641,0,0,1-6.291,26.362Z" transform="translate(0 -83.896)" fill="#fff"/><path d="M203.664,314.7,178.8,339.19l24.34,24.04L228,338.74Z" transform="translate(-44.52 -142.3)" fill="#fff"/></svg>